<?xml version="1.0" encoding="utf-8"?>
<!-- Generator: Adobe Illustrator 25.0.1, SVG Export Plug-In . SVG Version: 6.00 Build 0)  -->
<svg version="1.1" id="Layer_1" xmlns="http://www.w3.org/2000/svg" xmlns:xlink="http://www.w3.org/1999/xlink" x="0px" y="0px"
	 viewBox="0 0 2000 2000" style="enable-background:new 0 0 2000 2000;" xml:space="preserve">
<style type="text/css">
	.st0{fill:#847E80;}
	.st1{fill:#8E6F2A;}
	.st2{fill:#28618C;}
	.st3{fill:#FDCD88;}
	.st4{fill:#279145;}
	.st5{fill:#FAF1D8;}
</style>
<g>
	<path class="st0" d="M868.6,1027.4c1.6-3.5,3.5-6.1,5.8-9.1c8.8-11.4,22.4-17.8,36.9-15.9c0.8,0.1,1.6,0.3,2.4,0.4
		c1.9-1.8,3.9-3.6,5.8-5.3c5.4-4.9,13.2-9,21-9.6c0.4-1.4,0.8-2.8,1.3-4.1c-5.7-1.3-11.1-4.1-15.5-8.3c-3.4-3.3-6.6-6.8-9.7-10.4
		c-4.6-3.7-9.1-9.2-10.7-14.6c-0.6-1-1.3-2-1.9-3c-6.1-10.1-5.5-22.4,0.2-32c-0.6,0.1-1.2,0.1-1.9,0.2c-16,1.4-29.2,11.1-31.4,27.7
		c-0.6,4.4-0.3,8.7,0.9,12.8c-9.3,12.2-17.3,25.3-23.7,39.1c-4.5,9.6-5.8,18.5-1.6,28.5c2.8,6.6,8.3,13.6,15.2,16.8
		c1.2-3.2,2.9-6.3,5-9C867.4,1030.1,868,1028.8,868.6,1027.4z"/>
	<path class="st0" d="M982.6,894.7c4.1-2.1,8.7-3,13.3-3.1c5-5,11.7-8.4,18.8-9.3c13.1-1.8,23.8,4.2,31.2,14.4
		c2.4,2.7,5,5.2,7.9,7.4c-0.4-0.3-0.9-0.7-1.3-1c4,3.4,7,7,9.3,12.3c1,2.3,1.7,4.6,2.1,7c1.3-0.3,2.7-0.5,4.2-0.7
		c1.1-4.4,2.5-8.7,3.5-13.2c3.2-14.7,0.9-29.6-9.5-41c-10.9-12-29.2-16.8-44.7-20.1c-7.8-1.7-16.1-3.4-24.1-3.3
		c-11.7,0-22.8,4.9-30.6,13.2C977.2,862.3,986.6,879.9,982.6,894.7z"/>
	<path class="st0" d="M1150.4,1019.4c-2.4-7.1-5.6-13.9-7.2-21.3c-1-8.5-2.2-16.8-6.7-24.5c-7.2-12.1-18.5-17.2-30.8-22.4
		c-0.6-0.3-1.2-0.5-1.9-0.8c1.6,7.1,1.4,14.6-0.3,22.1c-1.5,6.5-4.9,11.7-9.4,15.5c-2.5,9.2-7.1,17.7-13.7,24.7
		c0.1,2.2,0,4.4-0.3,6.6c-0.9,6.4-3.5,14-8.8,18.4c-7.4,6.1-15.3,11.5-23.6,16.1c-1.8,15-16.5,28.9-31.8,27.9
		c-2.1-0.1-4.2-0.1-6.4,0c-8.3,1.7-16.2,4.7-24.3,7.1c-1.6,0.5-3.3,0.9-4.9,1.3c3.3,1.9,6.9,3.5,10.7,4.6c13.7,4,28.1,0.7,39.8-6.8
		c6,6.3,14.8,9.9,23.3,9.9c10.4,0,18.2-4.7,24.5-11.9c4.9,3,10.2,5.4,16,6.8c27,6.4,53.8-11.7,58.3-39
		C1154.7,1041.9,1154.2,1030.7,1150.4,1019.4z"/>
	<path class="st1" d="M904.1,947.3c0.6,1,1.3,2,1.9,3c1.6,5.4,6.1,10.9,10.7,14.6c3.1,3.7,6.3,7.2,9.7,10.4
		c4.4,4.2,9.8,7.1,15.5,8.3c-0.5,1.3-0.9,2.7-1.3,4.1c2.1-0.2,4.3-0.1,6.4,0.3c1.1-9.5,5.9-18.6,13.7-23.3c-0.1-0.6-0.2-1.2-0.3-1.8
		c-2.1-16-0.1-32.9,5.5-48c3-8.2,7.4-14.4,14.7-19.1c0.7-0.4,1.4-0.8,2.1-1.2c4-14.9-5.4-32.5-20-37.5c-0.9-0.3-1.8-0.6-2.7-0.8
		c-17.4-4-34,5.2-39.4,22.4c-2.3,7.4-3.3,15.7-2.8,23.8c-1.9,0.9-3.7,2.1-5.5,3.4c-3.3,2.6-6,5.7-8.1,9.2
		C898.6,924.9,898,937.3,904.1,947.3z"/>
	<path class="st2" d="M1009.5,1081.6c2.1-0.1,4.2-0.1,6.4,0c15.3,1,30.1-12.9,31.8-27.9c-11,5.9-22.7,10.2-35.3,12.2
		c-9,1.4-16.6,1.1-24.7-3.2c-7.4-3.9-12.2-11.4-14.7-19.1c-1.5-4.8-1.5-10.5-0.2-15.8c-5.6-4.5-11.2-9.1-16.7-13.6
		c-7.5-6.1-10.3-16.2-9.1-26c-2.1-0.4-4.2-0.5-6.4-0.3c-7.8,0.6-15.6,4.7-21,9.6c-1.9,1.8-3.9,3.6-5.8,5.3c-0.8-0.2-1.6-0.3-2.4-0.4
		c-14.5-2-28.1,4.4-36.9,15.9c-2.3,3-4.2,5.6-5.8,9.1c-0.6,1.4-1.2,2.7-1.9,3.9c-2.1,2.7-3.8,5.8-5,9c-4.3,11.5-2.5,25.3,7,34
		c0.9,0.8,1.8,1.6,2.8,2.3c-5.9,4.4-10.5,10.4-12.5,17.6c-2.1,7.7-1.2,17.9,3.2,24.7c4.4,6.8,11,12.8,19.1,14.7
		c8.2,1.9,17.3,1.4,24.7-3.2c5.5-3.5,11-7,16.5-10.4c7-4.4,12.5-11.1,14.7-19.1c0.1-0.2,0.1-0.4,0.1-0.6c6,3.1,13.1,4.3,19.5,3.4
		c8.6-1.2,17.1-6.1,22.3-13.4c0.3-0.1,0.7-0.2,1-0.2c1.7-0.4,3.3-0.8,4.9-1.3C993.2,1086.3,1001.2,1083.4,1009.5,1081.6z"/>
	<path class="st3" d="M1132.1,1007.5c-2.2-7-5-13.9-7.8-20.7c-3.6-8.6-7.1-17.3-12.2-25.2c-2.6-4.1-5.4-7.9-8.4-11.5
		c0,0.1,0.1,0.2,0.1,0.3c1.6,7.1,1.4,14.6-0.3,22.1c-1.5,6.5-4.9,11.7-9.4,15.5c-2.5,9.2-7.1,17.7-13.7,24.7c0.1,2.2,0,4.4-0.3,6.6
		c-0.9,6.4-3.5,14-8.8,18.4c-7.4,6.1-15.3,11.5-23.6,16.1c-11,5.9-22.7,10.2-35.3,12.2c-6.8,1-12.8,1.1-18.8-0.8
		c0.2,1.4,0.5,2.8,0.9,4.2c-14.1,8.3-26.5,20.8-34.2,35.2c-8,14.7-4.1,35.5,11.5,43.8c14.9,7.9,35.3,4.2,43.8-11.5
		c1-1.8,2-3.5,3.1-5.1c1.6-1.8,3.3-3.5,5.2-5.1c2.2-1.5,4.5-2.8,6.9-4c2.6-0.9,5.2-1.6,7.9-2.1c12.6-1.2,24.6-1.9,35.9-9.2
		c5.9-3.9,11.5-8.5,16.5-13.5c7.7-7.6,12.4-16.4,12.6-26.8c3.6-1,7.1-2.5,10.4-4.8c6.4-4.3,11.7-9.6,15.2-16.6
		C1136,1036.4,1136.5,1021.6,1132.1,1007.5z"/>
	<path class="st4" d="M1012.4,1065.9c12.6-1.9,24.3-6.2,35.3-12.2c8.3-4.5,16.2-10,23.6-16.1c5.3-4.3,7.9-12,8.8-18.4
		c0.3-2.1,0.4-4.3,0.3-6.6c6.6-7,11.2-15.5,13.7-24.7c4.5-3.8,7.9-9,9.4-15.5c1.7-7.5,1.9-14.9,0.3-22.1c0-0.1-0.1-0.2-0.1-0.3
		c-1-4.4-2.7-8.6-5-12.7c-5.7-9.7-16.4-15.8-27.6-15.8c-1,0-2,0.1-3,0.2c-1.4,0.1-2.8,0.4-4.2,0.7c-0.5-2.4-1.2-4.8-2.1-7
		c-2.2-5.3-5.2-8.9-9.3-12.3c0.4,0.3,0.9,0.7,1.3,1c-2.9-2.3-5.5-4.7-7.9-7.4c-7.4-10.2-18.2-16.2-31.2-14.4
		c-7,0.9-13.7,4.3-18.8,9.3c-4.6,0-9.2,1-13.3,3.1c-0.7,0.4-1.4,0.7-2.1,1.2c-7.3,4.7-11.7,10.9-14.7,19.1
		c-5.6,15.1-7.6,32.1-5.5,48c0.1,0.6,0.2,1.2,0.3,1.8c-7.8,4.7-12.6,13.8-13.7,23.3c-1.2,9.8,1.6,19.9,9.1,26
		c5.6,4.5,11.2,9.1,16.7,13.6c-1.2,5.3-1.3,11,0.2,15.8c2.5,7.7,7.3,15.2,14.7,19.1c2,1.1,3.9,1.9,5.9,2.5
		C999.6,1067,1005.6,1067,1012.4,1065.9z"/>
	<g>
		<path class="st5" d="M1021.2,917.8h0.4c20.2,0,33.4,11.4,39.6,34.2c1.3,4.9,2,10.2,2,15.7v2.6c0,25.1-10.7,42.5-32.2,52.4
			c-5.2,1.6-10.8,2.4-16.7,2.4c-6.2,0-12.9-1-19.9-2.9v46.4c-2.9,9-9.2,13.8-19.1,14.4h-17.5c-2.7,0-4.4-1.8-5-5.5v-1.4
			c0-4,3.4-6.1,10.3-6.1c3.7-1,5.5-4.1,5.5-9.4V959.9c0-15.5-2.5-23.3-7.4-23.3c-6.6,0-9.9-2.3-9.9-6.9c0-4.3,2.8-6.5,8.5-6.5
			l29.2-3.9c3,0,4.7,2,5,5.9v3.5C1002.2,921.5,1011.3,917.8,1021.2,917.8z M994.3,963.5V994c0,7.6,5.1,13,15.4,16.4l4.5,0.4
			c11.8,0,18.7-10.9,20.8-32.7v-7.8c0-17.8-3.7-28.2-11-31.2c-1.9-1-4.4-1.4-7.4-1.4c-10.6,0-17.9,5.2-21.7,15.7L994.3,963.5z"/>
	</g>
</g>
</svg>
